<svg xmlns="http://www.w3.org/2000/svg" viewBox="0 0 24 24">
  <path fill="#4285F4" d="M22.5 12.25c0-.78-.07-1.53-.2-2.25H12v4.26h5.92a5.06 5.06 0 0 1-2.2 3.32v2.76h3.56c2.08-1.92 3.22-4.74 3.22-8.09Z"/>
  <path fill="#34A853" d="M12 23c2.97 0 5.46-.98 7.28-2.66l-3.56-2.76c-.99.66-2.25 1.05-3.72 1.05-2.86 0-5.29-1.93-6.15-4.53H2.18v2.84A11 11 0 0 0 12 23Z"/>
  <path fill="#FBBC05" d="M5.85 14.1A6.6 6.6 0 0 1 5.5 12c0-.73.13-1.43.35-2.1V7.06H2.18A11 11 0 0 0 1 12c0 1.78.43 3.46 1.18 4.94l3.67-2.84Z"/>
  <path fill="#EA4335" d="M12 5.38c1.62 0 3.06.56 4.21 1.64l3.15-3.15C17.46 2.13 14.97 1 12 1A11 11 0 0 0 2.18 7.06l3.67 2.84C6.71 7.31 9.14 5.38 12 5.38Z"/>
</svg>
